HIERARCHY
ROOT Hips
{
    OFFSET 0.0 0.0 0.0
    CHANNELS 6 Xposition Yposition Zposition Zrotation Xrotation Yrotation
    JOINT LeftHipJoint
    {
        OFFSET 0.1 0.0 0.0
        CHANNELS 3 Zrotation Xrotation Yrotation
        JOINT LeftUpLeg
        {
            OFFSET 132.20554564692995 0.0 0.0
            CHANNELS 3 Zrotation Xrotation Yrotation
            JOINT LeftLeg
            {
                OFFSET 0.0 0.0 -431.51052311827306
                CHANNELS 3 Zrotation Xrotation Yrotation
                JOINT LeftFoot
                {
                    OFFSET 0.0 0.0 -398.5708142041799
                    CHANNELS 3 Zrotation Xrotation Yrotation
                    End Site
                    {
                        OFFSET 0.0 -0.1 0.0
                    }
                }
            }
        }
    }
    JOINT LowerBack
    {
        OFFSET 0.0 0.0 0.1
        CHANNELS 3 Zrotation Xrotation Yrotation
        JOINT Spine
        {
            OFFSET 0.0 0.0 233.429270417356
            CHANNELS 3 Zrotation Xrotation Yrotation
            JOINT Spine1
            {
                OFFSET 0.0 0.0 252.7954902791071
                CHANNELS 3 Zrotation Xrotation Yrotation
                JOINT LeftShoulder
                {
                    OFFSET 0.1 0.0 0.0
                    CHANNELS 3 Zrotation Xrotation Yrotation
                    JOINT LeftArm
                    {
                        OFFSET 151.654810400653 0.0 0.0
                        CHANNELS 3 Zrotation Xrotation Yrotation
                        JOINT LeftForeArm
                        {
                            OFFSET 276.55044389465326 0.0 0.0
                            CHANNELS 3 Zrotation Xrotation Yrotation
                            JOINT LeftHand
                            {
                                OFFSET 259.3342907273061 0.0 0.0
                                CHANNELS 3 Zrotation Xrotation Yrotation
                                End Site
                                {
                                    OFFSET 0.1 0.0 0.0
                                }
                            }
                        }
                    }
                }
                JOINT Neck
                {
                    OFFSET 0.0 0.0 0.1
                    CHANNELS 3 Zrotation Xrotation Yrotation
                    JOINT Neck1
                    {
                        OFFSET 0.0 0.0 107.81233999944361
                        CHANNELS 3 Zrotation Xrotation Yrotation
                        End Site
                        {
                            OFFSET 0.0 0.0 108.02594980986441
                        }
                    }
                }
                JOINT RightShoulder
                {
                    OFFSET -0.1 0.0 0.0
                    CHANNELS 3 Zrotation Xrotation Yrotation
                    JOINT RightArm
                    {
                        OFFSET -151.654810400653 0.0 0.0
                        CHANNELS 3 Zrotation Xrotation Yrotation
                        JOINT RightForeArm
                        {
                            OFFSET -276.55044389465326 0.0 0.0
                            CHANNELS 3 Zrotation Xrotation Yrotation
                            JOINT RightHand
                            {
                                OFFSET -259.3342907273061 0.0 0.0
                                CHANNELS 3 Zrotation Xrotation Yrotation
                                End Site
                                {
                                    OFFSET -0.1 0.0 0.0
                                }
                            }
                        }
                    }
                }
            }
        }
    }
    JOINT RightHipJoint
    {
        OFFSET -0.1 0.0 0.0
        CHANNELS 3 Zrotation Xrotation Yrotation
        JOINT RightUpLeg
        {
            OFFSET -132.20554564692995 0.0 0.0
            CHANNELS 3 Zrotation Xrotation Yrotation
            JOINT RightLeg
            {
                OFFSET 0.0 0.0 -431.51052311827306
                CHANNELS 3 Zrotation Xrotation Yrotation
                JOINT RightFoot
                {
                    OFFSET 0.0 0.0 -398.5708142041799
                    CHANNELS 3 Zrotation Xrotation Yrotation
                    End Site
                    {
                        OFFSET 0.0 -0.1 0.0
                    }
                }
            }
        }
    }
}
MOTION
Frames: 6
Frame Time: 0.03333333333333333
0.0 0.0 846.5033018673631 34.54128781462496 -20.23654686206994 6.197156539771538 -6.3611093629270335e-15 3.1743426606012833e-15 1.7621141549247118e-31 0.1501887473042155 9.74632273826096 -1.987376996389951 -0.28857897559500845 14.506935567926135 -5.407298976323745 0.0 0.0 0.0 -6.3611093629270335e-15 3.1743426606012833e-15 1.7621141549247118e-31 0.24567876344348985 15.928669906904528 -1.1211930422033187 -3.9620813684692733 3.8358822378961937e-16 4.1107520860000056e-16 0.0 0.0 0.0 -91.40046990314086 16.812333682296273 59.150421221306715 -104.71543304213557 -5.036975425286691e-15 3.8849183893842526e-15 0.0 0.0 1.5902773407317584e-15 0.0 0.0 0.0 -9.823344097034418 1.0243048112658855 -13.8096815298635 0.0 0.0 0.0 30.194681696524743 -40.30720518378124 -69.23407005214423 144.53270258718203 -1.0508312816848387e-14 -3.36043156650851e-15 0.0 0.0 0.0 -6.3611093629270335e-15 3.1743426606012833e-15 1.7621141549247118e-31 0.21587722188453806 14.218265632862641 -9.166809223754774 -1.9334687799097132 13.056360052777503 7.463548435928018 0.0 0.0 1.987846675914698e-16
0.0 0.0 846.5033018673631 34.58422625066896 -20.35155543174008 6.2225630677405075 0.0 0.0 0.0 0.14264313233898882 9.850312710092165 -2.0683035315504097 -0.3279200013743584 14.703519140324257 -5.347755446432841 0.0 0.0 0.0 0.0 0.0 0.0 0.23015054032391205 15.899960094435185 -1.1603660231402027 -3.9960646716458816 2.1945579837199517e-16 -5.890607721240837e-16 0.0 0.0 0.0 -91.34594623205221 16.80108191416279 59.274147335389124 -104.74925084247229 3.883431728287328e-15 5.03812170742721e-15 0.0 0.0 0.0 0.0 0.0 0.0 -9.678639218798073 1.0648562595094315 -13.805252276039136 0.0 0.0 0.0 30.190761837003247 -40.22739738434289 -69.29109826637306 144.50841417570882 7.289056075003638e-15 2.3326552000663345e-15 0.0 0.0 0.0 0.0 0.0 0.0 0.20503734265164592 14.390306623444953 -9.211779340667016 -1.9627032844378822 13.093699553721857 7.506161189518933 -1.7241821476758432e-33 -9.93923337957349e-16 -1.987846675914698e-16
0.0 0.0 846.5033018673631 34.630531324806064 -20.433672757194213 6.256483489809865 2.211263604394269e-32 3.1867667023257494e-15 -7.951386703658791e-16 0.13284545811669393 9.91798184996982 -2.1315999533599195 -0.36588877019031496 14.895527816346396 -5.374080969066994 0.0 0.0 0.0 2.211263604394269e-32 3.1867667023257494e-15 -7.951386703658791e-16 0.21234062045227484 15.885241168330642 -1.193119573526812 -4.027305893146195 -1.2408652552691422e-15 1.3487244582082702e-15 0.0 -9.93923337957349e-17 0.0 -91.37010783400713 16.74782192701775 59.33083865157358 -104.79923534052837 5.039815169475009e-15 -3.881233745170156e-15 0.0 0.0 -1.5902773407317584e-15 0.0 -9.93923337957349e-17 0.0 -9.55942032691465 1.1645069430328008 -13.790535845035205 0.0 -9.93923337957349e-17 0.0 30.20159215268559 -40.16308227966727 -69.37774564028538 144.46641773932498 -1.074505329927321e-14 1.6596072219979903e-14 0.0 0.0 0.0 2.211263604394269e-32 3.1867667023257494e-15 -7.951386703658791e-16 0.19268681181421257 14.644059845974681 -9.25728947146987 -1.974159012170057 13.002574831522136 7.488543960794921 0.0 0.0 1.987846675914698e-16
0.0 0.0 846.5033018673631 34.6701392463635 -20.49375585774375 6.236734812972486 0.0 0.0 7.951386703658792e-16 0.12773813792470856 9.9645807002501 -2.108804520639473 -0.3698515111670852 14.942819970915842 -5.39770666548045 0.0 0.0 1.987846675914698e-16 0.0 0.0 7.951386703658792e-16 0.20266397223468435 15.857814221727144 -1.2153650266387863 -4.0566305161146765 -1.8943068083006662e-15 1.3182132742147935e-16 -5.17254644302753e-34 9.939233379573489e-17 5.963540027744093e-16 -91.34787526003721 16.72197901783402 59.36542946228259 -104.80054770483392 -1.0079719238251116e-14 7.762352052471093e-15 0.0 0.0 1.5902773407317584e-15 -5.17254644302753e-34 9.939233379573489e-17 5.963540027744093e-16 -9.407219599814205 1.1768446892161244 -13.784668042204876 -5.17254644302753e-34 9.939233379573489e-17 5.963540027744093e-16 30.19250981337747 -40.135892795698254 -69.42875855269202 144.4229582877738 1.2063438490538826e-14 1.0550980439580905e-14 0.0 0.0 -6.3611093629270335e-15 0.0 0.0 7.951386703658792e-16 0.1854360101718047 14.742397392511396 -9.23520200024719 -1.9784984987928889 13.013046158923679 7.4892691881764035 0.0 0.0 1.987846675914698e-16
0.0 0.0 846.5033018673631 34.669263752531826 -20.617929552620645 6.268222732034655 0.0 0.0 7.951386703658792e-16 0.1256948939203797 10.039607607387289 -2.148966303406248 -0.3890944433762771 15.09049032427448 -5.453007533020204 0.0 0.0 1.987846675914698e-16 0.0 0.0 7.951386703658792e-16 0.19788658977982534 15.85913097587049 -1.289899113874336 -4.063281975248646 -1.2060526586707026e-15 3.5503626193865716e-16 0.0 0.0 0.0 -91.3969088832942 16.627795946857873 59.381293749784156 -104.73852860431913 1.0075516631705013e-14 -7.76780624840164e-15 0.0 0.0 1.5902773407317584e-15 0.0 0.0 0.0 -9.28193279462948 1.1887569956811064 -13.700638208702465 0.0 0.0 0.0 30.11599840592274 -40.1144764976924 -69.5111219845068 144.33053155986667 8.476731445386144e-15 -3.954980987133054e-15 0.0 0.0 -6.3611093629270335e-15 0.0 0.0 7.951386703658792e-16 0.18358327438198 14.939794362095498 -9.29683441395677 -1.976904533674534 12.886269243326602 7.551934519883175 0.0 0.0 -1.987846675914698e-16
0.0 0.0 846.5033018673631 34.61258021294974 -20.637965302879262 6.1898850120586895 -2.2069531490250793e-32 3.1805546814635168e-15 7.951386703658792e-16 0.11686815109902854 10.066731436895264 -2.057988188681371 -0.38101282453300195 15.17701335913275 -5.478250738906369 0.0 0.0 0.0 -2.2069531490250793e-32 3.1805546814635168e-15 7.951386703658792e-16 0.18247077321714256 15.802820439535672 -1.2782766019152225 -4.061911342568787 -1.8020278005112685e-15 3.3391623513669796e-16 0.0 0.0 -3.975693351829396e-16 -91.39153912329901 16.630516792614717 59.36825402852048 -104.8010852224665 -3.881152385591098e-15 -5.039877824604332e-15 0.0 0.0 -1.5902773407317584e-15 0.0 0.0 -3.975693351829396e-16 -9.219931752075961 1.2804845007534302 -13.664779426928444 0.0 0.0 -3.975693351829396e-16 30.26437496725847 -40.01597762735306 -69.49272423562407 144.3988754688938 -2.5124250877385304e-15 5.87427192103371e-15 -6.3611093629270335e-15 -3.1805546814635168e-15 -1.7655625192200634e-31 -2.2069531490250793e-32 3.1805546814635168e-15 7.951386703658792e-16 0.17066027138376588 15.01871541298368 -9.18919403551555 -1.9818375767576668 12.997938256310883 7.518523096544979 0.0 0.0 -3.9756933518293955e-16
